#!OML:ASF F:\VICON\USERDATA\INSTALL\rory3\rory3.ASF
:FULLY-SPECIFIED
:DEGREES
144
root 1.2369167519787785 17.87085052046374 48.843490225466226 -3.8532853948559467 0.9525091568658448 -0.9758825666737958
lfemur 3.4644487666925787 -2.656356202613584 -20.46180299657874
ltibia 52.09200457601561
lfoot -15.832988124886377 -4.176373783219022
ltoes -5.699074427424952
rfemur -15.568571122577206 0.673892755441424 23.747455903004038
rtibia 24.733445097209326
rfoot 0.8275587412760856 -9.20797245787771
rtoes 8.932157556117136
lowerback 10.517926293056641 -0.8081934152770112 -0.6697117695461193
upperback -0.07731060832633951 -1.1167006211922599 1.9898869932021923
thorax -6.135754077334091 -0.5454937599140643 2.8365101647186375
lowerneck -16.808134726472037 -3.370807193056022 -1.476514849463595
upperneck 21.35938949379026 -4.5915189116297555 1.1123131507698987
head 9.584578544042525 -2.1557553580531197 0.01819911582481276
lclavicle -2.7003079518281617e-15 -2.151714706257834e-15
lhumerus -26.539549315699652 1.2624042923584096 81.75005698621447
lradius 26.900404711688036
lwrist 10.411782470689532
lhand -29.77963041317631 19.95342267971948
lfingers 7.125020000000001
lthumb -3.012515869086067 50.41727436621205
rclavicle -2.700307951770495e-15 -2.151714706217954e-15
rhumerus -31.086982288417715 -19.90031705301962 -77.52155952082596
rradius 25.594978652325054
rwrist 5.683832585381699
rhand -18.049616899272806 21.589189497530775
rfingers 7.125020000000001
rthumb 8.266054050409988 -7.4692412381648925
145
root 1.2221995477682335 17.871086152433204 48.66322962571242 -3.7537940049614225 0.811383202154649 -0.9439570120587655
lfemur 4.026182769731186 -2.672844584074308 -20.582556525395745
ltibia 51.48286559693218
lfoot -16.08908668302522 -3.9662204034171964
ltoes -8.153008805611755
rfemur -16.118247304119652 0.7806787100556967 23.72685225019437
rtibia 24.24846629818442
rfoot 1.0739628366886649 -9.19547055464346
rtoes 9.212968044978659
lowerback 10.493946413749196 -0.8682053933968588 -0.784658017771802
upperback -0.07919406039547351 -1.2706130862973049 1.9682333793844624
thorax -6.117741160097997 -0.6060482670624386 2.9833425585888764
lowerneck -16.811174004824025 -3.362501011415886 -1.4726920414559195
upperneck 21.373912338494158 -4.575403940701358 1.1237565372236886
head 9.585292080835291 -2.1474335131626714 0.03171990493739707
lclavicle -2.7003079518249085e-15 -2.1517147062557715e-15
lhumerus -26.72267251410525 1.063433200785851 81.71261728503806
lradius 27.097284147250928
lwrist 10.369753771782921
lhand -29.7785874454126 19.86851919286945
lfingers 7.125020000000001
lthumb -2.960514701159319 50.503663589124514
rclavicle -2.700307951768932e-15 -2.1517147062170325e-15
rhumerus -31.31279929698269 -19.896382824087567 -77.3264372877714
rradius 25.634193132260105
rwrist 5.374224269638004
rhand -18.032680673820362 21.524590851260648
rfingers 7.125020000000001
rthumb 8.241541968367901 -7.625387499523787
146
root 1.2159907382175117 17.87658561102452 48.22797126072311 -3.6005698959483587 0.6797697371080942 -1.0500164094900706
lfemur 4.314109900538439 -2.690627553917202 -20.594514469433154
ltibia 50.92478400530903
lfoot -16.37190237222757 -3.7557443468351823
ltoes -9.957158542257158
rfemur -16.63622892352098 0.9135278627757248 23.8342692176118
rtibia 23.554067600449372
rfoot 1.2564849657921808 -9.082611694050058
rtoes 8.704206343961872
lowerback 10.457768861800133 -0.9442783168305817 -0.7806671482448949
upperback -0.12807008160668432 -1.3416756442058622 1.9848314349301015
thorax -6.140002070593167 -0.6462169103123153 3.074852136374612
lowerneck -16.77548078861193 -3.351316683272429 -1.4842139030404609
upperneck 21.370864794682962 -4.551795186390801 1.1241472737372653
head 9.593164270429613 -2.137196043373949 0.03619686317885881
lclavicle -2.7003079518248122e-15 -2.151714706255853e-15
lhumerus -26.926896478528747 1.086045795645786 81.73726459658715
lradius 27.219661680593557
lwrist 10.031036311335784
lhand -29.825506843811763 19.985095834645776
lfingers 7.125020000000001
lthumb -2.923080233816252 50.77555819707728
rclavicle -2.7003079517721325e-15 -2.1517147062193856e-15
rhumerus -31.62013418184823 -19.985474825378056 -77.2728529949224
rradius 25.723590834225
rwrist 5.420218688550086
rhand -17.97154075411785 21.572982370793106
rfingers 7.125020000000001
rthumb 8.338783861147226 -7.541218587895932
147
root 1.219562792716684 17.86523699085847 48.32195467437782 -3.7641900567376005 0.42729655381651765 -0.653984451429491
lfemur 4.691037945267331 -2.698069218905561 -21.074297331791296
ltibia 50.37194027715005
lfoot -16.765049421188653 -3.7095031235419134
ltoes -10.40683830485392
rfemur -17.13585092920336 1.0426091441250556 23.615777327225906
rtibia 23.594812891171287
rfoot 1.186872208897693 -9.025898005699538
rtoes 10.555759476836588
lowerback 10.452379364106745 -0.9951087172032249 -1.18673396431302
upperback -0.14235416566559406 -1.4931481885518234 1.9432696122080046
thorax -6.116524269381719 -0.7201142937112215 3.271720110696884
lowerneck -16.758951843129463 -3.3396355011456444 -1.481795183985094
upperneck 21.43394747954863 -4.543107943662669 1.1435432528575507
head 9.633707014331032 -2.1319053980878677 0.041032575958533296
lclavicle -2.700307951826786e-15 -2.1517147062571693e-15
lhumerus -27.192809495406806 0.9918170437411278 81.76786570739647
lradius 27.326025702420885
lwrist 9.778766026648203
lhand -29.953314267961428 19.449554375840723
lfingers 7.125020000000001
lthumb -3.1313901923974954 50.01359535752384
rclavicle -2.7003079517679575e-15 -2.1517147062165323e-15
rhumerus -31.784980523888144 -19.987837755616045 -77.22453764618263
rradius 25.782842969467215
rwrist 5.541500898605216
rhand -17.895819536574116 21.68124213752558
rfingers 7.125020000000001
rthumb 8.323696782423372 -7.566195221211061
148
root 1.2235109949644059 17.86965716915878 48.89509086384557 -3.6574541326506624 0.3090427869839034 -0.5207270842316625
lfemur 5.11253313553161 -2.729364965057352 -21.36225347364482
ltibia 49.81404913187524
lfoot -17.058338953063494 -3.6189734742713697
ltoes -10.64048864544735
rfemur -17.58236738353225 1.1134506425149537 23.597432274205907
rtibia 23.284635377866913
rfoot 1.2501459249536229 -8.946216878151166
rtoes 9.996755179895251
lowerback 10.42783267165219 -1.0778432634412047 -1.3578513871253994
upperback -0.15388970520750156 -1.6528911297141742 1.9202560071500647
thorax -6.10597681745173 -0.798378871534561 3.3827805085036373
lowerneck -16.776021642872983 -3.3383852528516322 -1.4913240427664496
upperneck 21.49372053808425 -4.533172836854231 1.140260346795539
head 9.66721508262027 -2.1256794189701016 0.04603093401661071
lclavicle -2.7003079518266223e-15 -2.15171470625704e-15
lhumerus -27.405865756331288 0.946494288530594 81.77113346461397
lradius 27.349172889030513
lwrist 10.00750055687326
lhand -29.989774483140586 19.69860248255633
lfingers 7.125020000000001
lthumb -3.1174070063711317 50.51371825941142
rclavicle -2.7003079517647365e-15 -2.1517147062142742e-15
rhumerus -31.952507014191365 -19.970452104548823 -77.13520285701375
rradius 25.84346976063593
rwrist 5.443243872123977
rhand -17.86898206687771 21.747272596288898
rfingers 7.125020000000001
rthumb 8.417733143041021 -7.465599972999053
149
root 1.23357953444452 17.878684797806436 49.62809082087506 -3.575279150453803 0.2136238307805945 -0.27603259925331436
lfemur 5.585965245994883 -2.7924297596604246 -21.72332923542239
ltibia 49.234861647709735
lfoot -17.315926842914372 -3.4977787568285934
ltoes -11.635206391226557
rfemur -17.957646255168584 1.1474784378845733 23.517315273817946
rtibia 23.077682968914928
rfoot 1.2484895601111532 -8.919039221424427
rtoes 10.44909761510954
lowerback 10.393312989464457 -1.1544346807018482 -1.5735542537458422
upperback -0.17260010513215018 -1.7946742156776379 1.8891230853397298
thorax -6.09425805479215 -0.842074140751194 3.53306101230342
lowerneck -16.742401527936263 -3.3284857265040704 -1.5065415644368203
upperneck 21.569534960897975 -4.5228125149163345 1.1355759478274678
head 9.690776344841119 -2.1220113475027653 0.05462300122095143
lclavicle -2.700307951820766e-15 -2.1517147062528333e-15
lhumerus -27.767949222783546 0.7436857148386888 81.7131420010254
lradius 27.2953204511352
lwrist 10.584656187353236
lhand -29.956001581047484 19.22369394048652
lfingers 7.125020000000001
lthumb -3.1365070682678744 49.88232046153137
rclavicle -2.7003079517686674e-15 -2.15171470621672e-15
rhumerus -32.09975808284739 -20.12808969634194 -77.24349215140401
rradius 25.872369169430165
rwrist 5.7566411698142295
rhand -17.92282450150514 21.70301249862003
rfingers 7.125020000000001
rthumb 8.388044132535285 -7.5493095135054595
150
root 1.2398046259844295 17.88719713209601 50.033860850984865 -3.5069222486585026 0.07526876059746729 -0.09755524224304546
lfemur 6.05077452259386 -2.8811837637038265 -22.044472308301593
ltibia 48.69686264917014
lfoot -17.510133340066318 -3.3020835459299334
ltoes -12.360573266533017
rfemur -18.292773834181276 1.2056652570714557 23.50476252173201
rtibia 22.870818734010463
rfoot 1.3199368950572428 -8.840075996533903
rtoes 10.716451332359489
lowerback 10.357492075617714 -1.2395755225026142 -1.8052889324262194
upperback -0.19050889260777698 -1.925983011724887 1.8802320858566415
thorax -6.1157073490858345 -0.9158820572995365 3.5674490497535145
lowerneck -16.69298966470188 -3.318572634841099 -1.5295232467533222
upperneck 21.62598571154145 -4.504127093446864 1.1454554265940111
head 9.702887983636742 -2.116363174702639 0.0695468558975505
lclavicle -2.700307951823947e-15 -2.151714706254802e-15
lhumerus -27.814691043570377 0.9339186730554618 81.77474373645225
lradius 27.04858826015888
lwrist 10.79323701089371
lhand -29.902165693241873 18.414144062829642
lfingers 7.125020000000001
lthumb -3.1311840965667823 48.97509566211835
rclavicle -2.700307951763568e-15 -2.151714706213088e-15
rhumerus -32.01237902713912 -20.148547531166695 -77.37561750152324
rradius 25.813553224700442
rwrist 5.813553315636311
rhand -17.91401008238706 21.80563250590572
rfingers 7.125020000000001
rthumb 8.53015097010724 -7.306435379761778
